; NON-PLATED HOLES START AT T1
; THROUGH (PLATED) HOLES START AT T100
M48
INCH
T100C0.030000
T101C0.035000
T102C0.031497
T103C0.040000
T104C0.015748
T105C0.041000
T106C0.038000
T107C0.078740
%
T100
X015428Y001553
X014426Y001553
T101
X016426Y004553
X011315Y001775
X022193Y001787
X014293Y005575
X014293Y003575
X011315Y005775
X010382Y001731
X016426Y005553
X012248Y001775
X018426Y002553
X016426Y002553
X010382Y005731
X019193Y001787
X016426Y003553
X012248Y005775
X017426Y002553
X014293Y004575
T102
X001404Y001042
X004337Y000975
X001404Y002026
X004337Y001960
X001426Y005538
X004426Y005538
X001426Y004553
X004426Y004553
T103
X017937Y005975
X021937Y005975
T104
X017880Y004566
T105
X008759Y001798
X007759Y005798
X006759Y001798
T106
X022648Y004842
X021648Y004842
T107
X018934Y003534
X021626Y003442
X002004Y003575
X004759Y003598
T00
M30
