G04 MADE WITH FRITZING*
G04 WWW.FRITZING.ORG*
G04 DOUBLE SIDED*
G04 HOLES PLATED*
G04 CONTOUR ON CENTER OF CONTOUR VECTOR*
%ASAXBY*%
%FSLAX23Y23*%
%MOIN*%
%OFA0B0*%
%SFA1.0B1.0*%
%ADD10C,0.078000*%
%ADD11C,0.118110*%
%ADD12C,0.039370*%
%ADD13C,0.062992*%
%ADD14C,0.075000*%
%ADD15C,0.099000*%
%ADD16C,0.070000*%
%ADD17C,0.080000*%
%ADD18R,0.078000X0.078000*%
%ADD19R,0.062992X0.062992*%
%ADD20R,0.075000X0.075000*%
%ADD21R,0.099000X0.099000*%
%ADD22C,0.024000*%
%LNCOPPER0*%
G90*
G70*
G54D10*
X2265Y484D03*
X2165Y484D03*
G54D11*
X476Y360D03*
X200Y358D03*
X2163Y344D03*
X1893Y353D03*
G54D12*
X1788Y457D03*
G54D13*
X434Y196D03*
X434Y98D03*
X143Y554D03*
X143Y455D03*
G54D14*
X1643Y255D03*
X1743Y255D03*
X1843Y255D03*
X1919Y179D03*
X2219Y179D03*
G54D15*
X876Y180D03*
X676Y180D03*
X776Y580D03*
G54D14*
X1038Y173D03*
X1038Y573D03*
X1225Y178D03*
X1225Y578D03*
X1429Y358D03*
X1429Y458D03*
X1429Y558D03*
X1132Y178D03*
X1132Y578D03*
G54D16*
X1443Y155D03*
X1543Y155D03*
G54D14*
X1643Y355D03*
X1643Y455D03*
X1643Y555D03*
G54D17*
X1794Y598D03*
X2194Y598D03*
G54D13*
X140Y203D03*
X140Y104D03*
X443Y554D03*
X443Y455D03*
G54D18*
X2265Y484D03*
G54D19*
X434Y196D03*
X143Y554D03*
G54D20*
X1843Y255D03*
G54D21*
X676Y180D03*
G54D20*
X1429Y558D03*
X1643Y555D03*
G54D19*
X140Y203D03*
X443Y554D03*
G54D22*
X452Y430D02*
X459Y407D01*
D02*
X156Y432D02*
X175Y401D01*
D02*
X1011Y328D02*
X476Y360D01*
D02*
X1010Y574D02*
X808Y579D01*
D02*
X1452Y440D02*
X1524Y385D01*
X1524Y385D02*
X1541Y181D01*
D02*
X1138Y206D02*
X1140Y217D01*
X1140Y217D02*
X1407Y439D01*
D02*
X1819Y240D02*
X1596Y97D01*
X1596Y97D02*
X1380Y97D01*
X1380Y97D02*
X1250Y164D01*
D02*
X1160Y578D02*
X1196Y578D01*
D02*
X899Y201D02*
X1356Y625D01*
X1356Y625D02*
X1716Y625D01*
X1716Y625D02*
X1716Y313D01*
X1716Y313D02*
X1731Y281D01*
D02*
X163Y119D02*
X204Y145D01*
X204Y145D02*
X420Y529D01*
X420Y529D02*
X425Y534D01*
D02*
X2210Y571D02*
X2249Y510D01*
D02*
X1014Y157D02*
X924Y97D01*
D02*
X924Y97D02*
X804Y97D01*
D02*
X804Y97D02*
X804Y241D01*
D02*
X804Y241D02*
X516Y313D01*
D02*
X516Y313D02*
X509Y321D01*
D02*
X1793Y567D02*
X1789Y476D01*
D02*
X114Y198D02*
X84Y193D01*
X84Y193D02*
X84Y49D01*
X84Y49D02*
X228Y49D01*
X228Y49D02*
X412Y180D01*
D02*
X2303Y366D02*
X2213Y352D01*
D02*
X2274Y456D02*
X2303Y366D01*
G04 End of Copper0*
M02*