G04 MADE WITH FRITZING*
G04 WWW.FRITZING.ORG*
G04 DOUBLE SIDED*
G04 HOLES PLATED*
G04 CONTOUR ON CENTER OF CONTOUR VECTOR*
%ASAXBY*%
%FSLAX23Y23*%
%MOIN*%
%OFA0B0*%
%SFA1.0B1.0*%
%ADD10C,0.062992*%
%ADD11C,0.075000*%
%ADD12C,0.099000*%
%ADD13C,0.070000*%
%ADD14C,0.080000*%
%ADD15C,0.078000*%
%ADD16C,0.118110*%
%ADD17C,0.039370*%
%ADD18R,0.062992X0.062992*%
%ADD19R,0.075000X0.075000*%
%ADD20R,0.099000X0.099000*%
%ADD21R,0.078000X0.078000*%
%ADD22C,0.024000*%
%LNCOPPER0*%
G90*
G70*
G54D10*
X434Y196D03*
X434Y98D03*
X143Y554D03*
X143Y455D03*
G54D11*
X1643Y255D03*
X1743Y255D03*
X1843Y255D03*
X1919Y179D03*
X2219Y179D03*
G54D12*
X876Y180D03*
X676Y180D03*
X776Y580D03*
G54D11*
X1038Y173D03*
X1038Y573D03*
X1225Y178D03*
X1225Y578D03*
X1429Y358D03*
X1429Y458D03*
X1429Y558D03*
X1132Y178D03*
X1132Y578D03*
G54D13*
X1443Y155D03*
X1543Y155D03*
G54D11*
X1643Y355D03*
X1643Y455D03*
X1643Y555D03*
G54D14*
X1794Y598D03*
X2194Y598D03*
G54D10*
X140Y203D03*
X140Y104D03*
X443Y554D03*
X443Y455D03*
G54D15*
X2087Y484D03*
X2187Y484D03*
G54D16*
X1893Y353D03*
X476Y360D03*
X2163Y344D03*
X200Y358D03*
G54D17*
X1011Y328D03*
X1779Y448D03*
G54D18*
X434Y196D03*
X143Y554D03*
G54D19*
X1843Y255D03*
G54D20*
X676Y180D03*
G54D19*
X1429Y558D03*
X1643Y555D03*
G54D18*
X140Y203D03*
X443Y554D03*
G54D21*
X2087Y484D03*
G54D22*
X1010Y574D02*
X808Y579D01*
D02*
X1538Y181D02*
X1491Y424D01*
D02*
X1491Y424D02*
X1454Y444D01*
D02*
X1152Y197D02*
X1408Y438D01*
D02*
X1891Y180D02*
X1779Y184D01*
D02*
X1779Y184D02*
X1756Y230D01*
D02*
X903Y197D02*
X1371Y496D01*
D02*
X1371Y496D02*
X1371Y616D01*
D02*
X1371Y616D02*
X1707Y616D01*
D02*
X1707Y616D02*
X1707Y304D01*
D02*
X1707Y304D02*
X1726Y278D01*
D02*
X160Y122D02*
X387Y328D01*
D02*
X387Y328D02*
X387Y520D01*
D02*
X387Y520D02*
X420Y540D01*
D02*
X2172Y575D02*
X2108Y506D01*
D02*
X452Y430D02*
X459Y407D01*
D02*
X156Y432D02*
X175Y401D01*
D02*
X992Y329D02*
X526Y357D01*
D02*
X1791Y567D02*
X1781Y467D01*
D02*
X456Y182D02*
X603Y88D01*
D02*
X603Y88D02*
X1275Y88D01*
D02*
X1275Y88D02*
X1418Y146D01*
D02*
X115Y195D02*
X75Y184D01*
D02*
X75Y184D02*
X75Y64D01*
D02*
X75Y64D02*
X99Y40D01*
D02*
X99Y40D02*
X267Y40D01*
D02*
X267Y40D02*
X414Y178D01*
G04 End of Copper0*
M02*